<?xml version="1.0" encoding="UTF-8"?>
<svg width="770px" height="765px" viewBox="0 0 770 765" version="1.1" xmlns="http://www.w3.org/2000/svg" xmlns:xlink="http://www.w3.org/1999/xlink">
    <title>Artboard</title>
    <g id="Artboard" stroke="none" stroke-width="1" fill="none" fill-rule="evenodd">
        <rect fill="#9CD1EF" x="0" y="0" width="770" height="765"></rect>
        <path d="M135.494277,206.175654 L130.150573,218.435136 C129.401949,220.152622 128.570546,221.832826 127.659288,223.469838 L123.764832,230.465958 C120.313917,236.665285 118.502686,243.64294 118.502686,250.738043 L118.502686,275.06371 C118.502686,279.49513 119.010546,283.91195 120.016326,288.227722 L129.490201,328.879822 C131.348071,336.851882 131.497431,345.126915 129.928462,353.160828 L123.566404,385.737776 C122.562417,390.878698 120.866648,395.859923 118.525352,400.545582 L93.9175523,449.793423 C91.9313529,453.768424 92.3160086,458.517441 94.9160455,462.120972 L95.5635653,463.018404 C97.6415848,465.898442 101.473642,466.894351 104.690981,465.390518 L107.888345,463.896021 C108.713733,463.510222 109.695594,463.866579 110.081393,464.691967 C110.183612,464.910657 110.236591,465.149117 110.236591,465.390518 C110.236591,466.480615 111.120289,467.364313 112.210386,467.364313 C112.387769,467.364313 112.564343,467.340402 112.735337,467.293225 L123.074739,464.440618 C125.421441,463.79317 126.79896,461.365932 126.151512,459.01923 C126.021927,458.549544 125.815366,458.104594 125.54023,457.702479 C123.268837,454.382803 122.053482,450.45429 122.053482,446.431919 L122.053482,425.402357 L122.053482,420.129036 C122.053482,416.728297 123.28137,413.441907 125.5113,410.874332 L133.9406,401.168709 C138.179662,396.28779 144.326814,393.4847 150.791566,393.4847 L154.861026,393.4847 C158.893112,393.4847 162.885321,394.282817 166.607489,395.833038 C170.223966,397.33924 173.112905,400.192891 174.663439,403.790584 L177.877802,411.248847 C178.903328,413.628367 179.43229,416.192197 179.43229,418.783301 L179.43229,422.710887 L179.43229,429.493729 C179.43229,433.901064 180.834448,438.194119 183.435905,441.75179 L186.787044,446.334703 C189.539978,450.099531 194.355103,451.73836 198.833135,450.434594 C203.736981,449.006854 208.234,446.440414 211.957553,442.944516 L224.387739,431.274302 C230.177329,425.838682 238.051962,423.202418 245.947254,424.056622 L253.895412,424.916546 C256.744623,425.224806 259.585821,424.269055 261.669449,422.301437 C263.529905,420.544564 266.422416,420.494199 268.342909,422.185237 L269.694852,423.375655 C271.088596,424.602879 273.083633,424.871502 274.752337,424.056622 C276.533702,423.186727 278.562445,422.964497 280.489885,423.428127 L286.131124,424.785082 C287.776728,425.180919 289.511822,424.919596 290.967836,424.056622 C292.409259,423.202296 294.151576,423.019027 295.739212,423.554736 L301.03444,425.34148 C306.018332,427.02317 311.470669,426.616207 316.149684,424.213275 L318.915862,422.79269 C323.512786,420.431916 328.606088,419.200516 333.773773,419.200516 L341.636966,419.200516 L349.309778,419.200516 C354.280384,419.200516 359.106825,417.530323 363.014274,414.458065 L366.036199,412.082058 C366.684894,411.572017 367.624235,411.684418 368.134276,412.333114 C368.471256,412.761701 368.548042,413.33981 368.334626,413.841503 C366.870686,417.282894 364.144577,420.033106 360.716205,421.527282 L358.939916,422.301437 C354.246998,424.346736 349.182739,425.402357 344.063488,425.402357 L330.685605,425.402357 C329.711779,425.402357 328.922337,426.191799 328.922337,427.165625 C328.922337,427.681077 329.147883,428.170719 329.53963,428.50572 L329.666466,428.614183 C331.810701,430.447813 334.810464,430.903959 337.402823,429.790577 C339.829051,428.748546 342.65207,429.657609 344.014343,431.919604 L344.137633,432.124322 C345.481605,434.355929 344.762034,437.254509 342.530426,438.598481 C342.493746,438.620572 342.456766,438.642162 342.419497,438.663246 L323.280333,449.490714 C319.785825,451.467638 315.600144,451.812647 311.829099,450.434594 C308.22292,449.116789 304.178401,450.073295 301.544532,452.866836 L286.655207,468.6588 C280.63566,475.04327 273.245958,479.978709 265.042611,483.093432 L241.105548,492.18208 C232.315516,495.519561 224.468638,500.943967 218.240887,507.988011 L201.674757,526.725521 C197.938025,530.952039 193.097046,534.053181 187.695406,535.680724 C182.681199,537.191532 177.248908,535.573039 173.879182,531.564329 L168.978858,525.734783 C165.812491,521.967993 161.600013,519.224997 156.874367,517.852825 L154.402422,517.135054 C151.323661,516.241084 148.02496,516.496165 145.120237,517.852825 C142.211732,519.211252 139.882532,521.561729 138.55061,524.482466 L133.809958,534.87812 C132.810013,537.070872 131.947709,539.323817 131.22806,541.623851 L125.595408,559.626093 C123.275182,567.04165 119.040846,573.714407 113.319317,578.971596 L111.931988,580.246334 C107.069805,584.713919 101.48044,588.318438 95.4048743,590.904485 L88.1858671,593.977235 C80.3337617,597.319461 73.3159266,602.353235 67.6329232,608.719514 L64.3255736,612.424511 C56.8540216,620.794378 53.9872406,632.3087 56.6620536,643.204761 L57.3426016,645.977026 C59.97554,656.702508 70.8046791,663.26281 81.5301606,660.629872 C81.7786661,660.568868 82.0259777,660.503099 82.2719589,660.432603 L548.681215,526.763051 C571.82114,520.131314 588.459725,499.895752 590.494516,475.910429 L607.871509,271.077221 C608.695821,261.360557 602.247419,252.51728 592.743984,250.331475 L580.295899,247.468395 C577.555395,246.838074 574.864361,246.009284 572.244088,244.988582 L567.704809,243.22035 C562.10134,241.037572 556.940162,237.856705 552.471796,233.832145 L537.393575,220.251523 C530.409918,213.961496 520.485126,212.12733 511.714652,215.505891 L511.00034,215.781058 C502.084296,219.215695 492.457818,220.394439 482.976486,219.212525 L458.434557,216.153205 C456.054544,215.85652 453.65842,215.707749 451.259986,215.707749 L435.16833,215.707749 C434.224303,215.707749 433.459018,216.473033 433.459018,217.41706 C433.459018,218.216698 432.810783,218.864933 432.011145,218.864933 C431.931352,218.864933 431.851695,218.858337 431.772989,218.845212 L419.697944,216.831596 C415.691018,216.163407 412.58689,212.96262 412.041845,208.937094 L411.748418,206.769937 C411.338241,203.740504 410.245593,200.843739 408.552867,198.298079 C406.913242,195.832277 406.379262,192.793245 407.08011,189.916205 L407.109809,189.794287 C407.820898,186.875205 409.861111,184.459264 412.619913,183.269433 L422.605915,178.962619 C427.449871,176.873493 431.554089,173.376671 434.38595,168.925949 L436.883226,165.001079 C438.084001,163.113868 439.858388,161.661518 441.945691,160.857409 C444.030497,160.054262 445.794464,158.589698 446.967292,156.688138 L450.010246,151.754458 C453.218345,146.553022 457.329843,141.966515 462.150991,138.21107 L475.489577,127.820949 C479.114359,124.997417 482.390788,121.753164 485.249954,118.156424 L521.015378,73.1646486 C524.329566,68.9955038 528.202206,65.3027114 532.524124,62.1903747 L557.546214,44.1712527 C559.412688,42.8271515 559.836155,40.2244661 558.492053,38.3579922 C558.206291,37.9611709 557.852874,37.6177779 557.447998,37.3435479 C554.357645,35.2503992 550.435069,34.8123302 546.959092,36.1721582 L543.964798,37.3435479 C538.332903,39.546787 533.240848,42.9357363 529.034169,47.2804297 L518.539558,58.1193512 C516.4199,60.3085517 514.476064,62.6613922 512.7261,65.1560218 L493.599226,92.4220011 C493.196208,92.9965158 492.782796,93.5636687 492.359195,94.1231796 L478.307093,112.683804 C476.499182,115.071772 474.509013,117.31611 472.354445,119.39668 L461.145071,130.22107 C459.085718,132.209696 457.176423,134.348061 455.432843,136.618633 L450.184041,143.453872 C446.85105,147.794252 442.920556,151.641086 438.509485,154.879941 L421.400435,167.442361 C421.093086,167.668034 420.783519,167.89067 420.47178,168.110238 L401.145002,181.722666 C397.901122,184.007428 394.431356,185.953296 390.790221,187.529696 L359.40125,201.1193 C357.789642,201.817033 356.147176,202.44121 354.478928,202.989901 L336.243197,208.987686 C334.195112,209.661307 332.11106,210.220205 330.000745,210.661777 L312.676466,214.286788 C308.263484,215.21018 303.671265,214.708234 299.561961,212.853326 C295.376056,210.963841 291.537809,208.383686 288.207873,205.220858 L285.170073,202.335504 C282.103302,199.422634 278.370554,197.304156 274.297265,196.164767 C270.220474,195.024399 265.931071,194.868991 261.782445,195.711347 L252.109319,197.675422 C251.372623,197.825004 250.638905,197.988894 249.90858,198.167 L239.421787,200.724431 C235.490593,201.683138 231.670518,203.050604 228.023971,204.804486 L225.36646,206.082672 C220.006989,208.660421 214.136081,209.998904 208.18892,209.998904 L186.720508,209.998904 L173.782269,209.998904 C165.47182,209.998904 157.392457,207.263252 150.791566,202.214311 C146.389043,198.846874 140.090246,199.685978 136.72281,204.088501 C136.230548,204.732075 135.818034,205.432895 135.494277,206.175654 Z" id="Path" stroke="#BC9760" stroke-width="4" fill="#FCFCFC"></path>
        <ellipse id="Oval" stroke="#FFFFFF" stroke-width="4" fill="#BC9760" cx="359.5" cy="201" rx="8.5" ry="8"></ellipse>
        <ellipse id="Oval-Copy-2" stroke="#FFFFFF" stroke-width="4" fill="#BC9760" cx="238.5" cy="201" rx="8.5" ry="8"></ellipse>
        <ellipse id="Oval-Copy-3" stroke="#FFFFFF" stroke-width="4" fill="#BC9760" cx="119.5" cy="272" rx="8.5" ry="8"></ellipse>
        <ellipse id="Oval-Copy-4" stroke="#FFFFFF" stroke-width="4" fill="#BC9760" cx="102.5" cy="436" rx="8.5" ry="8"></ellipse>
        <ellipse id="Oval-Copy" fill="#30459E" cx="388.6" cy="399" rx="12.6" ry="12"></ellipse>
        <g id="Калининград" transform="translate(414.699375, 392.000000)" fill="#535252" fill-rule="nonzero">
            <path d="M9.0940625,14 L4.745,7.2590625 L7.35875,5.6865625 L12.7728125,14 L9.0940625,14 Z M0,14 L0,0 L3.2234375,0 L3.2234375,14 L0,14 Z M2.27375,8.360625 L2.27375,5.6665625 L7.1634375,5.6665625 L7.1634375,8.360625 L2.27375,8.360625 Z M7.661875,7.3553125 L4.6734375,6.9996875 L9.224375,0 L12.6478125,0 L7.661875,7.3553125 Z" id="Shape"></path>
            <path d="M21.252137,14 L21.252137,11.9 L21.052137,11.44 L21.052137,7.68 C21.052137,7.01333333 20.8488036,6.49333333 20.442137,6.12 C20.0354703,5.74666667 19.412137,5.56 18.572137,5.56 C17.9988036,5.56 17.4354703,5.65 16.882137,5.83 C16.3288036,6.01 15.8588036,6.25333333 15.472137,6.56 L14.352137,4.38 C14.9388036,3.96666667 15.6454703,3.64666667 16.472137,3.42 C17.2988036,3.19333333 18.1388036,3.08 18.992137,3.08 C20.632137,3.08 21.9054703,3.46666667 22.812137,4.24 C23.7188036,5.01333333 24.172137,6.22 24.172137,7.86 L24.172137,14 L21.252137,14 Z M17.972137,14.16 C17.132137,14.16 16.412137,14.0166667 15.812137,13.73 C15.212137,13.4433333 14.752137,13.0533333 14.432137,12.56 C14.112137,12.0666667 13.952137,11.5133333 13.952137,10.9 C13.952137,10.26 14.1088036,9.7 14.422137,9.22 C14.7354703,8.74 15.232137,8.36333333 15.912137,8.09 C16.592137,7.81666667 17.4788036,7.68 18.572137,7.68 L21.432137,7.68 L21.432137,9.5 L18.912137,9.5 C18.1788036,9.5 17.6754703,9.62 17.402137,9.86 C17.1288036,10.1 16.992137,10.4 16.992137,10.76 C16.992137,11.16 17.1488036,11.4766667 17.462137,11.71 C17.7754703,11.9433333 18.2054703,12.06 18.752137,12.06 C19.272137,12.06 19.7388036,11.9366667 20.152137,11.69 C20.5654703,11.4433333 20.8654703,11.08 21.052137,10.6 L21.532137,12.04 C21.3054703,12.7333333 20.892137,13.26 20.292137,13.62 C19.692137,13.98 18.9188036,14.16 17.972137,14.16 Z" id="Shape"></path>
            <path d="M27.8137102,14.2275 C27.5847519,14.2275 27.3358456,14.2048958 27.0669915,14.1596875 C26.7981373,14.1144792 26.5119394,14.0571875 26.2083977,13.9878125 L26.3521477,11.4140625 C26.4402727,11.4273958 26.5243352,11.4394271 26.6043352,11.4501563 C26.6843352,11.4608854 26.7576685,11.46625 26.8243352,11.46625 C27.1980852,11.46625 27.491731,11.3592708 27.7052727,11.1453125 C27.9188144,10.9313542 28.0796477,10.6419792 28.1877727,10.2771875 C28.2958977,9.91239583 28.3719394,9.49489583 28.4158977,9.0246875 C28.459856,8.55447917 28.4925644,8.064375 28.5140227,7.554375 L28.6862102,3.2409375 L37.8830852,3.2409375 L37.8830852,14 L34.7630852,14 L34.7630852,5.0365625 L35.4652727,5.795625 L30.7368352,5.795625 L31.3912102,5.000625 L31.2671477,7.6984375 C31.2271477,8.6528125 31.148554,9.53005208 31.0313665,10.3301563 C30.914179,11.1302604 30.7303248,11.8204167 30.479804,12.400625 C30.2292831,12.9808333 29.8888665,13.4303646 29.458554,13.7492188 C29.0282415,14.0680729 28.4799602,14.2275 27.8137102,14.2275 Z" id="Path"></path>
            <polygon id="Path" points="41.5385359 14 41.5385359 3.2409375 44.6507234 3.2409375 44.6507234 9.64125 49.8910359 3.2409375 52.7475984 3.2409375 52.7475984 14 49.6354109 14 49.6354109 7.591875 44.4154109 14"></polygon>
            <polygon id="Path" points="56.4031605 14 56.4031605 3.2409375 59.515348 3.2409375 59.515348 7.4309375 64.188473 7.4309375 64.188473 3.2409375 67.3006605 3.2409375 67.3006605 14 64.188473 14 64.188473 9.9815625 59.515348 9.9815625 59.515348 14"></polygon>
            <polygon id="Path" points="70.9560574 14 70.9560574 3.2409375 74.0682449 3.2409375 74.0682449 9.64125 79.3085574 3.2409375 82.1651199 3.2409375 82.1651199 14 79.0529324 14 79.0529324 7.591875 73.8329324 14"></polygon>
            <polygon id="Path" points="85.820682 14 85.820682 3.2409375 88.9328695 3.2409375 88.9328695 7.4309375 93.6059945 7.4309375 93.6059945 3.2409375 96.718182 3.2409375 96.718182 14 93.6059945 14 93.6059945 9.9815625 88.9328695 9.9815625 88.9328695 14"></polygon>
            <polygon id="Path" points="100.373579 14 100.373579 3.2409375 108.992329 3.2409375 108.992329 5.795625 102.783266 5.795625 103.485766 5.113125 103.485766 14"></polygon>
            <path d="M117.666603,14.16 C116.759937,14.16 115.966603,13.96 115.286603,13.56 C114.606603,13.16 114.076603,12.55 113.696603,11.73 C113.316603,10.91 113.126603,9.87333333 113.126603,8.62 C113.126603,7.35333333 113.306603,6.31333333 113.666603,5.5 C114.026603,4.68666667 114.546603,4.08 115.226603,3.68 C115.906603,3.28 116.719937,3.08 117.666603,3.08 C118.679937,3.08 119.589937,3.31 120.396603,3.77 C121.20327,4.23 121.84327,4.87333333 122.316603,5.7 C122.789937,6.52666667 123.026603,7.5 123.026603,8.62 C123.026603,9.75333333 122.789937,10.7333333 122.316603,11.56 C121.84327,12.3866667 121.20327,13.0266667 120.396603,13.48 C119.589937,13.9333333 118.679937,14.16 117.666603,14.16 Z M111.306603,17.88 L111.306603,3.24 L114.286603,3.24 L114.286603,5.44 L114.226603,8.64 L114.426603,11.82 L114.426603,17.88 L111.306603,17.88 Z M117.126603,11.6 C117.646603,11.6 118.109937,11.48 118.516603,11.24 C118.92327,11 119.249937,10.6566667 119.496603,10.21 C119.74327,9.76333333 119.866603,9.23333333 119.866603,8.62 C119.866603,7.99333333 119.74327,7.46 119.496603,7.02 C119.249937,6.58 118.92327,6.24 118.516603,6 C118.109937,5.76 117.646603,5.64 117.126603,5.64 C116.606603,5.64 116.139937,5.76 115.726603,6 C115.31327,6.24 114.986603,6.58 114.746603,7.02 C114.506603,7.46 114.386603,7.99333333 114.386603,8.62 C114.386603,9.23333333 114.506603,9.76333333 114.746603,10.21 C114.986603,10.6566667 115.31327,11 115.726603,11.24 C116.139937,11.48 116.606603,11.6 117.126603,11.6 Z" id="Shape"></path>
            <path d="M132.132867,14 L132.132867,11.9 L131.932867,11.44 L131.932867,7.68 C131.932867,7.01333333 131.729533,6.49333333 131.322867,6.12 C130.9162,5.74666667 130.292867,5.56 129.452867,5.56 C128.879533,5.56 128.3162,5.65 127.762867,5.83 C127.209533,6.01 126.739533,6.25333333 126.352867,6.56 L125.232867,4.38 C125.819533,3.96666667 126.5262,3.64666667 127.352867,3.42 C128.179533,3.19333333 129.019533,3.08 129.872867,3.08 C131.512867,3.08 132.7862,3.46666667 133.692867,4.24 C134.599533,5.01333333 135.052867,6.22 135.052867,7.86 L135.052867,14 L132.132867,14 Z M128.852867,14.16 C128.012867,14.16 127.292867,14.0166667 126.692867,13.73 C126.092867,13.4433333 125.632867,13.0533333 125.312867,12.56 C124.992867,12.0666667 124.832867,11.5133333 124.832867,10.9 C124.832867,10.26 124.989533,9.7 125.302867,9.22 C125.6162,8.74 126.112867,8.36333333 126.792867,8.09 C127.472867,7.81666667 128.359533,7.68 129.452867,7.68 L132.312867,7.68 L132.312867,9.5 L129.792867,9.5 C129.059533,9.5 128.5562,9.62 128.282867,9.86 C128.009533,10.1 127.872867,10.4 127.872867,10.76 C127.872867,11.16 128.029533,11.4766667 128.342867,11.71 C128.6562,11.9433333 129.0862,12.06 129.632867,12.06 C130.152867,12.06 130.619533,11.9366667 131.032867,11.69 C131.4462,11.4433333 131.7462,11.08 131.932867,10.6 L132.412867,12.04 C132.1862,12.7333333 131.772867,13.26 131.172867,13.62 C130.572867,13.98 129.799533,14.16 128.852867,14.16 Z" id="Shape"></path>
            <path d="M140.577878,11.876875 L137.50944,11.4375 C137.888398,11.445625 138.199232,11.3315104 138.44194,11.0951563 C138.684648,10.8588021 138.873398,10.5310417 139.00819,10.111875 C139.142982,9.69270833 139.242357,9.21145833 139.306315,8.668125 C139.370273,8.12479167 139.41694,7.55416667 139.446315,6.95625 L139.586315,3.2409375 L148.958815,3.2409375 L148.958815,12.603125 L145.84694,12.603125 L145.84694,5.795625 L142.319753,5.795625 L142.263503,7.1875 C142.242044,7.75875 142.208607,8.30270833 142.16319,8.819375 C142.117773,9.33604167 142.038346,9.80536458 141.924909,10.2273437 C141.811471,10.6493229 141.648659,11.003125 141.436471,11.28875 C141.224284,11.574375 140.938086,11.7704167 140.577878,11.876875 Z M137.141315,16.316875 L137.141315,11.4375 L150.503503,11.4375 L150.503503,16.316875 L147.602565,16.316875 L147.602565,14 L140.04194,14 L140.04194,16.316875 L137.141315,16.316875 Z" id="Shape"></path>
        </g>
        <g id="Балтийск" transform="translate(114.746875, 430.980000)" fill="#535252" fill-rule="nonzero">
            <path d="M0,15.02 L0,1.02 L11.283125,1.02 L11.283125,3.6025 L3.20375,3.6025 L3.20375,6.4775 L7.0990625,6.4775 C8.78510417,6.4775 10.0718229,6.83078125 10.9592188,7.53734375 C11.8466146,8.24390625 12.2903125,9.270625 12.2903125,10.6175 C12.2903125,12.00625 11.7964583,13.0871875 10.80875,13.8603125 C9.82104167,14.6334375 8.42875,15.02 6.631875,15.02 L0,15.02 Z M3.20375,12.625 L6.444375,12.625 C7.28125,12.625 7.92020833,12.4606771 8.36125,12.1320312 C8.80229167,11.8033854 9.0228125,11.3272917 9.0228125,10.70375 C9.0228125,9.4775 8.16333333,8.864375 6.444375,8.864375 L3.20375,8.864375 L3.20375,12.625 Z" id="Shape"></path>
            <path d="M21.6149748,15.02 L21.6149748,12.92 L21.4149748,12.46 L21.4149748,8.7 C21.4149748,8.03333333 21.2116415,7.51333333 20.8049748,7.14 C20.3983082,6.76666667 19.7749748,6.58 18.9349748,6.58 C18.3616415,6.58 17.7983082,6.67 17.2449748,6.85 C16.6916415,7.03 16.2216415,7.27333333 15.8349748,7.58 L14.7149748,5.4 C15.3016415,4.98666667 16.0083082,4.66666667 16.8349748,4.44 C17.6616415,4.21333333 18.5016415,4.1 19.3549748,4.1 C20.9949748,4.1 22.2683082,4.48666667 23.1749748,5.26 C24.0816415,6.03333333 24.5349748,7.24 24.5349748,8.88 L24.5349748,15.02 L21.6149748,15.02 Z M18.3349748,15.18 C17.4949748,15.18 16.7749748,15.0366667 16.1749748,14.75 C15.5749748,14.4633333 15.1149748,14.0733333 14.7949748,13.58 C14.4749748,13.0866667 14.3149748,12.5333333 14.3149748,11.92 C14.3149748,11.28 14.4716415,10.72 14.7849748,10.24 C15.0983082,9.76 15.5949748,9.38333333 16.2749748,9.11 C16.9549748,8.83666667 17.8416415,8.7 18.9349748,8.7 L21.7949748,8.7 L21.7949748,10.52 L19.2749748,10.52 C18.5416415,10.52 18.0383082,10.64 17.7649748,10.88 C17.4916415,11.12 17.3549748,11.42 17.3549748,11.78 C17.3549748,12.18 17.5116415,12.4966667 17.8249748,12.73 C18.1383082,12.9633333 18.5683082,13.08 19.1149748,13.08 C19.6349748,13.08 20.1016415,12.9566667 20.5149748,12.71 C20.9283082,12.4633333 21.2283082,12.1 21.4149748,11.62 L21.8949748,13.06 C21.6683082,13.7533333 21.2549748,14.28 20.6549748,14.64 C20.0549748,15 19.2816415,15.18 18.3349748,15.18 Z" id="Shape"></path>
            <path d="M28.1765481,15.2475 C27.9475897,15.2475 27.6986835,15.2248958 27.4298293,15.1796875 C27.1609751,15.1344792 26.8747772,15.0771875 26.5712356,15.0078125 L26.7149856,12.4340625 C26.8031106,12.4473958 26.8871731,12.4594271 26.9671731,12.4701563 C27.0471731,12.4808854 27.1205064,12.48625 27.1871731,12.48625 C27.5609231,12.48625 27.8545689,12.3792708 28.0681106,12.1653125 C28.2816522,11.9513542 28.4424856,11.6619792 28.5506106,11.2971875 C28.6587356,10.9323958 28.7347772,10.5148958 28.7787356,10.0446875 C28.8226939,9.57447917 28.8554022,9.084375 28.8768606,8.574375 L29.0490481,4.2609375 L38.2459231,4.2609375 L38.2459231,15.02 L35.1259231,15.02 L35.1259231,6.0565625 L35.8281106,6.815625 L31.0996731,6.815625 L31.7540481,6.020625 L31.6299856,8.7184375 C31.5899856,9.6728125 31.5113918,10.5500521 31.3942043,11.3501562 C31.2770168,12.1502604 31.0931626,12.8404167 30.8426418,13.420625 C30.592121,14.0008333 30.2517043,14.4503646 29.8213918,14.7692187 C29.3910793,15.0880729 28.8427981,15.2475 28.1765481,15.2475 Z" id="Path"></path>
            <polygon id="Path" points="44.2041863 15.02 44.2041863 6.096875 44.9066863 6.815625 40.5744988 6.815625 40.5744988 4.2609375 50.9460613 4.2609375 50.9460613 6.815625 46.6138738 6.815625 47.3163738 6.096875 47.3163738 15.02"></polygon>
            <polygon id="Path" points="53.274663 15.02 53.274663 4.2609375 56.3868505 4.2609375 56.3868505 10.66125 61.627163 4.2609375 64.4837255 4.2609375 64.4837255 15.02 61.371538 15.02 61.371538 8.611875 56.151538 15.02"></polygon>
            <path d="M68.1449126,15.02 L68.1449126,4.26 L71.2449126,4.26 L71.2449126,10.66 L76.4849126,4.26 L79.3449126,4.26 L79.3449126,15.02 L76.2449126,15.02 L76.2449126,8.62 L71.0249126,15.02 L68.1449126,15.02 Z M73.5449126,3.1 C72.3715793,3.1 71.4915793,2.84333333 70.9049126,2.33 C70.318246,1.81666667 70.018246,1.04 70.0049126,0 L72.0449126,0 C72.058246,0.453333333 72.1849126,0.813333333 72.4249126,1.08 C72.6649126,1.34666667 73.0315793,1.48 73.5249126,1.48 C74.0049126,1.48 74.3749126,1.34666667 74.6349126,1.08 C74.8949126,0.813333333 75.0249126,0.453333333 75.0249126,0 L77.1049126,0 C77.1049126,1.04 76.8049126,1.81666667 76.2049126,2.33 C75.6049126,2.84333333 74.718246,3.1 73.5449126,3.1 Z" id="Shape"></path>
            <path d="M88.1295372,15.18 C86.9695372,15.18 85.9362039,14.9433333 85.0295372,14.47 C84.1228706,13.9966667 83.4128706,13.34 82.8995372,12.5 C82.3862039,11.66 82.1295372,10.7066667 82.1295372,9.64 C82.1295372,8.56 82.3862039,7.60333333 82.8995372,6.77 C83.4128706,5.93666667 84.1228706,5.28333333 85.0295372,4.81 C85.9362039,4.33666667 86.9695372,4.1 88.1295372,4.1 C89.2628706,4.1 90.2495372,4.33666667 91.0895372,4.81 C91.9295372,5.28333333 92.5495372,5.96 92.9495372,6.84 L90.5295372,8.14 C90.2495372,7.63333333 89.8995372,7.26 89.4795372,7.02 C89.0595372,6.78 88.6028706,6.66 88.1095372,6.66 C87.5762039,6.66 87.0962039,6.78 86.6695372,7.02 C86.2428706,7.26 85.9062039,7.6 85.6595372,8.04 C85.4128706,8.48 85.2895372,9.01333333 85.2895372,9.64 C85.2895372,10.2666667 85.4128706,10.8 85.6595372,11.24 C85.9062039,11.68 86.2428706,12.02 86.6695372,12.26 C87.0962039,12.5 87.5762039,12.62 88.1095372,12.62 C88.6028706,12.62 89.0595372,12.5033333 89.4795372,12.27 C89.8995372,12.0366667 90.2495372,11.66 90.5295372,11.14 L92.9495372,12.46 C92.5495372,13.3266667 91.9295372,13.9966667 91.0895372,14.47 C90.2495372,14.9433333 89.2628706,15.18 88.1295372,15.18 Z" id="Path"></path>
            <path d="M103.131964,15.02 L99.5407144,9.9275 L102.070402,8.4109375 L106.810714,15.02 L103.131964,15.02 Z M95.5116519,15.02 L95.5116519,4.2609375 L98.6319644,4.2609375 L98.6319644,15.02 L95.5116519,15.02 Z M97.7100894,10.9334375 L97.7100894,8.4390625 L101.476339,8.4390625 L101.476339,10.9334375 L97.7100894,10.9334375 Z M102.373527,9.991875 L99.4491519,9.67625 L103.242902,4.2609375 L106.554464,4.2609375 L102.373527,9.991875 Z" id="Shape"></path>
        </g>
        <text id="Янтарный" font-family="Montserrat-Bold, Montserrat" font-size="20" font-weight="bold" letter-spacing="0.666666651" fill="#535252">
            <tspan x="130" y="282">Янтарный</tspan>
        </text>
        <g id="Светлогорск" transform="translate(223.780000, 219.760000)" fill="#535252" fill-rule="nonzero">
            <path d="M7.58,14.48 C6.5,14.48 5.49666667,14.3033333 4.57,13.95 C3.64333333,13.5966667 2.84,13.0933333 2.16,12.44 C1.48,11.7866667 0.95,11.02 0.57,10.14 C0.19,9.26 0,8.29333333 0,7.24 C0,6.18666667 0.19,5.22 0.57,4.34 C0.95,3.46 1.48333333,2.69333333 2.17,2.04 C2.85666667,1.38666667 3.66,0.883333333 4.58,0.53 C5.5,0.176666667 6.50666667,0 7.6,0 C8.81333333,0 9.91,0.21 10.89,0.63 C11.87,1.05 12.6933333,1.66666667 13.36,2.48 L11.28,4.4 C10.8,3.85333333 10.2666667,3.44333333 9.68,3.17 C9.09333333,2.89666667 8.45333333,2.76 7.76,2.76 C7.10666667,2.76 6.50666667,2.86666667 5.96,3.08 C5.41333333,3.29333333 4.94,3.6 4.54,4 C4.14,4.4 3.83,4.87333333 3.61,5.42 C3.39,5.96666667 3.28,6.57333333 3.28,7.24 C3.28,7.90666667 3.39,8.51333333 3.61,9.06 C3.83,9.60666667 4.14,10.08 4.54,10.48 C4.94,10.88 5.41333333,11.1866667 5.96,11.4 C6.50666667,11.6133333 7.10666667,11.72 7.76,11.72 C8.45333333,11.72 9.09333333,11.5833333 9.68,11.31 C10.2666667,11.0366667 10.8,10.62 11.28,10.06 L13.36,11.98 C12.6933333,12.7933333 11.87,13.4133333 10.89,13.84 C9.91,14.2666667 8.80666667,14.48 7.58,14.48 Z" id="Path"></path>
            <path d="M15.9038164,14.24 L15.9038164,3.4809375 L21.4041289,3.4809375 C22.7501706,3.4809375 23.8037123,3.72291667 24.5647539,4.206875 C25.3257956,4.69083333 25.7063164,5.378125 25.7063164,6.26875 C25.7063164,7.140625 25.3511081,7.82583333 24.6406914,8.324375 C23.9302748,8.82291667 22.9860039,9.0721875 21.8078789,9.0721875 L22.1235039,8.3571875 C23.4299623,8.3571875 24.4090768,8.5978125 25.0608477,9.0790625 C25.7126185,9.5603125 26.0385039,10.2621875 26.0385039,11.1846875 C26.0385039,12.1340625 25.677306,12.880625 24.9549102,13.424375 C24.2325143,13.968125 23.1315248,14.24 21.6519414,14.24 L15.9038164,14.24 Z M18.7656914,12.1159375 L21.3847539,12.1159375 C21.9593373,12.1159375 22.3910039,12.0184375 22.6797539,11.8234375 C22.9685039,11.6284375 23.1128789,11.331875 23.1128789,10.93375 C23.1128789,10.5222917 22.978556,10.2190104 22.7099102,10.0239062 C22.4412643,9.82880208 22.0196498,9.73125 21.4450664,9.73125 L18.7656914,9.73125 L18.7656914,12.1159375 Z M18.7656914,7.8975 L21.1250664,7.8975 C21.6727748,7.8975 22.0836602,7.79666667 22.3577227,7.595 C22.6317852,7.39333333 22.7688164,7.10541667 22.7688164,6.73125 C22.7688164,6.34395833 22.6317852,6.05947917 22.3577227,5.8778125 C22.0836602,5.69614583 21.6727748,5.6053125 21.1250664,5.6053125 L18.7656914,5.6053125 L18.7656914,7.8975 Z" id="Shape"></path>
            <path d="M34.2833593,14.4 C33.0566926,14.4 31.980026,14.16 31.0533593,13.68 C30.1266926,13.2 29.410026,12.5433333 28.9033593,11.71 C28.3966926,10.8766667 28.1433593,9.92666667 28.1433593,8.86 C28.1433593,7.78 28.3933593,6.82333333 28.8933593,5.99 C29.3933593,5.15666667 30.0766926,4.50333333 30.9433593,4.03 C31.810026,3.55666667 32.790026,3.32 33.8833593,3.32 C34.9366926,3.32 35.8866926,3.54333333 36.7333593,3.99 C37.580026,4.43666667 38.250026,5.07666667 38.7433593,5.91 C39.2366926,6.74333333 39.4833593,7.74 39.4833593,8.9 C39.4833593,9.02 39.4766926,9.15666667 39.4633593,9.31 C39.450026,9.46333333 39.4366926,9.60666667 39.4233593,9.74 L30.6833593,9.74 L30.6833593,7.92 L37.7833593,7.92 L36.5833593,8.46 C36.5833593,7.9 36.470026,7.41333333 36.2433593,7 C36.0166926,6.58666667 35.7033593,6.26333333 35.3033593,6.03 C34.9033593,5.79666667 34.4366926,5.68 33.9033593,5.68 C33.370026,5.68 32.900026,5.79666667 32.4933593,6.03 C32.0866926,6.26333333 31.770026,6.59 31.5433593,7.01 C31.3166926,7.43 31.2033593,7.92666667 31.2033593,8.5 L31.2033593,8.98 C31.2033593,9.56666667 31.3333593,10.0833333 31.5933593,10.53 C31.8533593,10.9766667 32.220026,11.3166667 32.6933593,11.55 C33.1666926,11.7833333 33.7233593,11.9 34.3633593,11.9 C34.9366926,11.9 35.440026,11.8133333 35.8733593,11.64 C36.3066926,11.4666667 36.7033593,11.2066667 37.0633593,10.86 L38.7233593,12.66 C38.230026,13.22 37.610026,13.65 36.8633593,13.95 C36.1166926,14.25 35.2566926,14.4 34.2833593,14.4 Z" id="Path"></path>
            <polygon id="Path" points="44.4693546 14.24 44.4693546 5.316875 45.1718546 6.035625 40.8396671 6.035625 40.8396671 3.4809375 51.2112296 3.4809375 51.2112296 6.035625 46.8790421 6.035625 47.5815421 5.316875 47.5815421 14.24"></polygon>
            <path d="M53.0188711,14.4675 C52.7899128,14.4675 52.5410065,14.4448958 52.2721523,14.3996875 C52.0032982,14.3544792 51.7171003,14.2971875 51.4135586,14.2278125 L51.5573086,11.6540625 C51.6454336,11.6673958 51.7294961,11.6794271 51.8094961,11.6901562 C51.8894961,11.7008854 51.9628294,11.70625 52.0294961,11.70625 C52.4032461,11.70625 52.6968919,11.5992708 52.9104336,11.3853125 C53.1239753,11.1713542 53.2848086,10.8819792 53.3929336,10.5171875 C53.5010586,10.1523958 53.5771003,9.73489583 53.6210586,9.2646875 C53.6650169,8.79447917 53.6977253,8.304375 53.7191836,7.794375 L53.8913711,3.4809375 L63.0882461,3.4809375 L63.0882461,14.24 L59.9682461,14.24 L59.9682461,5.2765625 L60.6704336,6.035625 L55.9419961,6.035625 L56.5963711,5.240625 L56.4723086,7.9384375 C56.4323086,8.8928125 56.3537148,9.77005208 56.2365273,10.5701562 C56.1193398,11.3702604 55.9354857,12.0604167 55.6849648,12.640625 C55.434444,13.2208333 55.0940273,13.6703646 54.6637148,13.9892187 C54.2334023,14.3080729 53.6851211,14.4675 53.0188711,14.4675 Z" id="Path"></path>
            <path d="M71.7893218,14.4 C70.6426552,14.4 69.6259885,14.16 68.7393218,13.68 C67.8526552,13.2 67.1526552,12.5433333 66.6393218,11.71 C66.1259885,10.8766667 65.8693218,9.92666667 65.8693218,8.86 C65.8693218,7.78 66.1259885,6.82333333 66.6393218,5.99 C67.1526552,5.15666667 67.8526552,4.50333333 68.7393218,4.03 C69.6259885,3.55666667 70.6426552,3.32 71.7893218,3.32 C72.9226552,3.32 73.9359885,3.55666667 74.8293218,4.03 C75.7226552,4.50333333 76.4226552,5.15333333 76.9293218,5.98 C77.4359885,6.80666667 77.6893218,7.76666667 77.6893218,8.86 C77.6893218,9.92666667 77.4359885,10.8766667 76.9293218,11.71 C76.4226552,12.5433333 75.7226552,13.2 74.8293218,13.68 C73.9359885,14.16 72.9226552,14.4 71.7893218,14.4 Z M71.7893218,11.84 C72.3093218,11.84 72.7759885,11.72 73.1893218,11.48 C73.6026552,11.24 73.9293218,10.8966667 74.1693218,10.45 C74.4093218,10.0033333 74.5293218,9.47333333 74.5293218,8.86 C74.5293218,8.23333333 74.4093218,7.7 74.1693218,7.26 C73.9293218,6.82 73.6026552,6.48 73.1893218,6.24 C72.7759885,6 72.3093218,5.88 71.7893218,5.88 C71.2693218,5.88 70.8026552,6 70.3893218,6.24 C69.9759885,6.48 69.6459885,6.82 69.3993218,7.26 C69.1526552,7.7 69.0293218,8.23333333 69.0293218,8.86 C69.0293218,9.47333333 69.1526552,10.0033333 69.3993218,10.45 C69.6459885,10.8966667 69.9759885,11.24 70.3893218,11.48 C70.8026552,11.72 71.2693218,11.84 71.7893218,11.84 Z" id="Shape"></path>
            <polygon id="Path" points="80.4845256 14.24 80.4845256 3.4809375 89.1032756 3.4809375 89.1032756 6.035625 82.8942131 6.035625 83.5967131 5.353125 83.5967131 14.24"></polygon>
            <path d="M96.0413693,14.4 C94.8947026,14.4 93.878036,14.16 92.9913693,13.68 C92.1047026,13.2 91.4047026,12.5433333 90.8913693,11.71 C90.378036,10.8766667 90.1213693,9.92666667 90.1213693,8.86 C90.1213693,7.78 90.378036,6.82333333 90.8913693,5.99 C91.4047026,5.15666667 92.1047026,4.50333333 92.9913693,4.03 C93.878036,3.55666667 94.8947026,3.32 96.0413693,3.32 C97.1747026,3.32 98.188036,3.55666667 99.0813693,4.03 C99.9747026,4.50333333 100.674703,5.15333333 101.181369,5.98 C101.688036,6.80666667 101.941369,7.76666667 101.941369,8.86 C101.941369,9.92666667 101.688036,10.8766667 101.181369,11.71 C100.674703,12.5433333 99.9747026,13.2 99.0813693,13.68 C98.188036,14.16 97.1747026,14.4 96.0413693,14.4 Z M96.0413693,11.84 C96.5613693,11.84 97.028036,11.72 97.4413693,11.48 C97.8547026,11.24 98.1813693,10.8966667 98.4213693,10.45 C98.6613693,10.0033333 98.7813693,9.47333333 98.7813693,8.86 C98.7813693,8.23333333 98.6613693,7.7 98.4213693,7.26 C98.1813693,6.82 97.8547026,6.48 97.4413693,6.24 C97.028036,6 96.5613693,5.88 96.0413693,5.88 C95.5213693,5.88 95.0547026,6 94.6413693,6.24 C94.228036,6.48 93.898036,6.82 93.6513693,7.26 C93.4047026,7.7 93.2813693,8.23333333 93.2813693,8.86 C93.2813693,9.47333333 93.4047026,10.0033333 93.6513693,10.45 C93.898036,10.8966667 94.228036,11.24 94.6413693,11.48 C95.0547026,11.72 95.5213693,11.84 96.0413693,11.84 Z" id="Shape"></path>
            <path d="M111.082198,14.4 C110.175531,14.4 109.382198,14.2 108.702198,13.8 C108.022198,13.4 107.492198,12.79 107.112198,11.97 C106.732198,11.15 106.542198,10.1133333 106.542198,8.86 C106.542198,7.59333333 106.722198,6.55333333 107.082198,5.74 C107.442198,4.92666667 107.962198,4.32 108.642198,3.92 C109.322198,3.52 110.135531,3.32 111.082198,3.32 C112.095531,3.32 113.005531,3.55 113.812198,4.01 C114.618865,4.47 115.258865,5.11333333 115.732198,5.94 C116.205531,6.76666667 116.442198,7.74 116.442198,8.86 C116.442198,9.99333333 116.205531,10.9733333 115.732198,11.8 C115.258865,12.6266667 114.618865,13.2666667 113.812198,13.72 C113.005531,14.1733333 112.095531,14.4 111.082198,14.4 Z M104.722198,18.12 L104.722198,3.48 L107.702198,3.48 L107.702198,5.68 L107.642198,8.88 L107.842198,12.06 L107.842198,18.12 L104.722198,18.12 Z M110.542198,11.84 C111.062198,11.84 111.525531,11.72 111.932198,11.48 C112.338865,11.24 112.665531,10.8966667 112.912198,10.45 C113.158865,10.0033333 113.282198,9.47333333 113.282198,8.86 C113.282198,8.23333333 113.158865,7.7 112.912198,7.26 C112.665531,6.82 112.338865,6.48 111.932198,6.24 C111.525531,6 111.062198,5.88 110.542198,5.88 C110.022198,5.88 109.555531,6 109.142198,6.24 C108.728865,6.48 108.402198,6.82 108.162198,7.26 C107.922198,7.7 107.802198,8.23333333 107.802198,8.86 C107.802198,9.47333333 107.922198,10.0033333 108.162198,10.45 C108.402198,10.8966667 108.728865,11.24 109.142198,11.48 C109.555531,11.72 110.022198,11.84 110.542198,11.84 Z" id="Shape"></path>
            <path d="M124.41198,14.4 C123.25198,14.4 122.218647,14.1633333 121.31198,13.69 C120.405313,13.2166667 119.695313,12.56 119.18198,11.72 C118.668647,10.88 118.41198,9.92666667 118.41198,8.86 C118.41198,7.78 118.668647,6.82333333 119.18198,5.99 C119.695313,5.15666667 120.405313,4.50333333 121.31198,4.03 C122.218647,3.55666667 123.25198,3.32 124.41198,3.32 C125.545313,3.32 126.53198,3.55666667 127.37198,4.03 C128.21198,4.50333333 128.83198,5.18 129.23198,6.06 L126.81198,7.36 C126.53198,6.85333333 126.18198,6.48 125.76198,6.24 C125.34198,6 124.885313,5.88 124.39198,5.88 C123.858647,5.88 123.378647,6 122.95198,6.24 C122.525313,6.48 122.188647,6.82 121.94198,7.26 C121.695313,7.7 121.57198,8.23333333 121.57198,8.86 C121.57198,9.48666667 121.695313,10.02 121.94198,10.46 C122.188647,10.9 122.525313,11.24 122.95198,11.48 C123.378647,11.72 123.858647,11.84 124.39198,11.84 C124.885313,11.84 125.34198,11.7233333 125.76198,11.49 C126.18198,11.2566667 126.53198,10.88 126.81198,10.36 L129.23198,11.68 C128.83198,12.5466667 128.21198,13.2166667 127.37198,13.69 C126.53198,14.1633333 125.545313,14.4 124.41198,14.4 Z" id="Path"></path>
            <path d="M139.414407,14.24 L135.823157,9.1475 L138.352845,7.6309375 L143.093157,14.24 L139.414407,14.24 Z M131.794095,14.24 L131.794095,3.4809375 L134.914407,3.4809375 L134.914407,14.24 L131.794095,14.24 Z M133.992532,10.1534375 L133.992532,7.6590625 L137.758782,7.6590625 L137.758782,10.1534375 L133.992532,10.1534375 Z M138.65597,9.211875 L135.731595,8.89625 L139.525345,3.4809375 L142.836907,3.4809375 L138.65597,9.211875 Z" id="Shape"></path>
        </g>
        <g id="Зеленоградск" transform="translate(375.900000, 183.760000)" fill="#535252" fill-rule="nonzero">
            <path d="M5.7,14.48 C4.54,14.48 3.47,14.35 2.49,14.09 C1.51,13.83 0.68,13.48 0,13.04 L1.02,10.6 C1.64666667,11.0133333 2.36,11.3266667 3.16,11.54 C3.96,11.7533333 4.81333333,11.86 5.72,11.86 C6.86666667,11.86 7.71,11.6933333 8.25,11.36 C8.79,11.0266667 9.06,10.5733333 9.06,10 C9.06,9.62666667 8.96,9.31333333 8.76,9.06 C8.56,8.80666667 8.27,8.61333333 7.89,8.48 C7.51,8.34666667 7.05333333,8.28 6.52,8.28 L2.9,8.28 L2.9,5.84 L6.32,5.84 C7.04,5.84 7.57666667,5.71333333 7.93,5.46 C8.28333333,5.20666667 8.46,4.84666667 8.46,4.38 C8.46,3.95333333 8.33666667,3.61333333 8.09,3.36 C7.84333333,3.10666667 7.51333333,2.92333333 7.1,2.81 C6.68666667,2.69666667 6.22666667,2.64 5.72,2.64 C5.24,2.64 4.74,2.68333333 4.22,2.77 C3.7,2.85666667 3.20666667,2.97666667 2.74,3.13 C2.27333333,3.28333333 1.85333333,3.46 1.48,3.66 L0.58,1.18 C1.28666667,0.806666667 2.08666667,0.516666667 2.98,0.31 C3.87333333,0.103333333 4.78,0 5.7,0 C6.47333333,0 7.22,0.0766666667 7.94,0.23 C8.66,0.383333333 9.30666667,0.62 9.88,0.94 C10.4533333,1.26 10.9066667,1.66333333 11.24,2.15 C11.5733333,2.63666667 11.74,3.22 11.74,3.9 C11.74,4.51333333 11.5933333,5.08666667 11.3,5.62 C11.0066667,6.15333333 10.58,6.58666667 10.02,6.92 C9.46,7.25333333 8.78666667,7.42 8,7.42 L8.1,6.72 C8.91333333,6.72 9.63666667,6.86 10.27,7.14 C10.9033333,7.42 11.4033333,7.82333333 11.77,8.35 C12.1366667,8.87666667 12.32,9.50666667 12.32,10.24 C12.32,11.0666667 12.0633333,11.8 11.55,12.44 C11.0366667,13.08 10.29,13.58 9.31,13.94 C8.33,14.3 7.12666667,14.48 5.7,14.48 Z" id="Path"></path>
            <path d="M20.5763523,14.4 C19.3496857,14.4 18.273019,14.16 17.3463523,13.68 C16.4196857,13.2 15.703019,12.5433333 15.1963523,11.71 C14.6896857,10.8766667 14.4363523,9.92666667 14.4363523,8.86 C14.4363523,7.78 14.6863523,6.82333333 15.1863523,5.99 C15.6863523,5.15666667 16.3696857,4.50333333 17.2363523,4.03 C18.103019,3.55666667 19.083019,3.32 20.1763523,3.32 C21.2296857,3.32 22.1796857,3.54333333 23.0263523,3.99 C23.873019,4.43666667 24.543019,5.07666667 25.0363523,5.91 C25.5296857,6.74333333 25.7763523,7.74 25.7763523,8.9 C25.7763523,9.02 25.7696857,9.15666667 25.7563523,9.31 C25.743019,9.46333333 25.7296857,9.60666667 25.7163523,9.74 L16.9763523,9.74 L16.9763523,7.92 L24.0763523,7.92 L22.8763523,8.46 C22.8763523,7.9 22.763019,7.41333333 22.5363523,7 C22.3096857,6.58666667 21.9963523,6.26333333 21.5963523,6.03 C21.1963523,5.79666667 20.7296857,5.68 20.1963523,5.68 C19.663019,5.68 19.193019,5.79666667 18.7863523,6.03 C18.3796857,6.26333333 18.063019,6.59 17.8363523,7.01 C17.6096857,7.43 17.4963523,7.92666667 17.4963523,8.5 L17.4963523,8.98 C17.4963523,9.56666667 17.6263523,10.0833333 17.8863523,10.53 C18.1463523,10.9766667 18.513019,11.3166667 18.9863523,11.55 C19.4596857,11.7833333 20.0163523,11.9 20.6563523,11.9 C21.2296857,11.9 21.733019,11.8133333 22.1663523,11.64 C22.5996857,11.4666667 22.9963523,11.2066667 23.3563523,10.86 L25.0163523,12.66 C24.523019,13.22 23.903019,13.65 23.1563523,13.95 C22.4096857,14.25 21.5496857,14.4 20.5763523,14.4 Z" id="Path"></path>
            <path d="M28.9938522,14.4675 C28.7648938,14.4675 28.5159876,14.4448958 28.2471334,14.3996875 C27.9782792,14.3544792 27.6920813,14.2971875 27.3885397,14.2278125 L27.5322897,11.6540625 C27.6204147,11.6673958 27.7044772,11.6794271 27.7844772,11.6901563 C27.8644772,11.7008854 27.9378105,11.70625 28.0044772,11.70625 C28.3782272,11.70625 28.671873,11.5992708 28.8854147,11.3853125 C29.0989563,11.1713542 29.2597897,10.8819792 29.3679147,10.5171875 C29.4760397,10.1523958 29.5520813,9.73489583 29.5960397,9.2646875 C29.639998,8.79447917 29.6727063,8.304375 29.6941647,7.794375 L29.8663522,3.4809375 L39.0632272,3.4809375 L39.0632272,14.24 L35.9432272,14.24 L35.9432272,5.2765625 L36.6454147,6.035625 L31.9169772,6.035625 L32.5713522,5.240625 L32.4472897,7.9384375 C32.4072897,8.8928125 32.3286959,9.77005208 32.2115084,10.5701562 C32.0943209,11.3702604 31.9104667,12.0604167 31.6599459,12.640625 C31.4094251,13.2208333 31.0690084,13.6703646 30.6386959,13.9892188 C30.2083834,14.3080729 29.6601022,14.4675 28.9938522,14.4675 Z" id="Path"></path>
            <path d="M47.9843029,14.4 C46.7576362,14.4 45.6809696,14.16 44.7543029,13.68 C43.8276362,13.2 43.1109696,12.5433333 42.6043029,11.71 C42.0976362,10.8766667 41.8443029,9.92666667 41.8443029,8.86 C41.8443029,7.78 42.0943029,6.82333333 42.5943029,5.99 C43.0943029,5.15666667 43.7776362,4.50333333 44.6443029,4.03 C45.5109696,3.55666667 46.4909696,3.32 47.5843029,3.32 C48.6376362,3.32 49.5876362,3.54333333 50.4343029,3.99 C51.2809696,4.43666667 51.9509696,5.07666667 52.4443029,5.91 C52.9376362,6.74333333 53.1843029,7.74 53.1843029,8.9 C53.1843029,9.02 53.1776362,9.15666667 53.1643029,9.31 C53.1509696,9.46333333 53.1376362,9.60666667 53.1243029,9.74 L44.3843029,9.74 L44.3843029,7.92 L51.4843029,7.92 L50.2843029,8.46 C50.2843029,7.9 50.1709696,7.41333333 49.9443029,7 C49.7176362,6.58666667 49.4043029,6.26333333 49.0043029,6.03 C48.6043029,5.79666667 48.1376362,5.68 47.6043029,5.68 C47.0709696,5.68 46.6009696,5.79666667 46.1943029,6.03 C45.7876362,6.26333333 45.4709696,6.59 45.2443029,7.01 C45.0176362,7.43 44.9043029,7.92666667 44.9043029,8.5 L44.9043029,8.98 C44.9043029,9.56666667 45.0343029,10.0833333 45.2943029,10.53 C45.5543029,10.9766667 45.9209696,11.3166667 46.3943029,11.55 C46.8676362,11.7833333 47.4243029,11.9 48.0643029,11.9 C48.6376362,11.9 49.1409696,11.8133333 49.5743029,11.64 C50.0076362,11.4666667 50.4043029,11.2066667 50.7643029,10.86 L52.4243029,12.66 C51.9309696,13.22 51.3109696,13.65 50.5643029,13.95 C49.8176362,14.25 48.9576362,14.4 47.9843029,14.4 Z" id="Path"></path>
            <polygon id="Path" points="56.239847 14.24 56.239847 3.4809375 59.3520345 3.4809375 59.3520345 7.6709375 64.0251595 7.6709375 64.0251595 3.4809375 67.137347 3.4809375 67.137347 14.24 64.0251595 14.24 64.0251595 10.2215625 59.3520345 10.2215625 59.3520345 14.24"></polygon>
            <path d="M75.8383689,14.4 C74.6917022,14.4 73.6750356,14.16 72.7883689,13.68 C71.9017022,13.2 71.2017022,12.5433333 70.6883689,11.71 C70.1750356,10.8766667 69.9183689,9.92666667 69.9183689,8.86 C69.9183689,7.78 70.1750356,6.82333333 70.6883689,5.99 C71.2017022,5.15666667 71.9017022,4.50333333 72.7883689,4.03 C73.6750356,3.55666667 74.6917022,3.32 75.8383689,3.32 C76.9717022,3.32 77.9850356,3.55666667 78.8783689,4.03 C79.7717022,4.50333333 80.4717022,5.15333333 80.9783689,5.98 C81.4850356,6.80666667 81.7383689,7.76666667 81.7383689,8.86 C81.7383689,9.92666667 81.4850356,10.8766667 80.9783689,11.71 C80.4717022,12.5433333 79.7717022,13.2 78.8783689,13.68 C77.9850356,14.16 76.9717022,14.4 75.8383689,14.4 Z M75.8383689,11.84 C76.3583689,11.84 76.8250356,11.72 77.2383689,11.48 C77.6517022,11.24 77.9783689,10.8966667 78.2183689,10.45 C78.4583689,10.0033333 78.5783689,9.47333333 78.5783689,8.86 C78.5783689,8.23333333 78.4583689,7.7 78.2183689,7.26 C77.9783689,6.82 77.6517022,6.48 77.2383689,6.24 C76.8250356,6 76.3583689,5.88 75.8383689,5.88 C75.3183689,5.88 74.8517022,6 74.4383689,6.24 C74.0250356,6.48 73.6950356,6.82 73.4483689,7.26 C73.2017022,7.7 73.0783689,8.23333333 73.0783689,8.86 C73.0783689,9.47333333 73.2017022,10.0033333 73.4483689,10.45 C73.6950356,10.8966667 74.0250356,11.24 74.4383689,11.48 C74.8517022,11.72 75.3183689,11.84 75.8383689,11.84 Z" id="Shape"></path>
            <polygon id="Path" points="84.5335727 14.24 84.5335727 3.4809375 93.1523227 3.4809375 93.1523227 6.035625 86.9432602 6.035625 87.6457602 5.353125 87.6457602 14.24"></polygon>
            <path d="M101.826597,14.4 C100.91993,14.4 100.126597,14.2 99.4465971,13.8 C98.7665971,13.4 98.2365971,12.79 97.8565971,11.97 C97.4765971,11.15 97.2865971,10.1133333 97.2865971,8.86 C97.2865971,7.59333333 97.4665971,6.55333333 97.8265971,5.74 C98.1865971,4.92666667 98.7065971,4.32 99.3865971,3.92 C100.066597,3.52 100.87993,3.32 101.826597,3.32 C102.83993,3.32 103.74993,3.55 104.556597,4.01 C105.363264,4.47 106.003264,5.11333333 106.476597,5.94 C106.94993,6.76666667 107.186597,7.74 107.186597,8.86 C107.186597,9.99333333 106.94993,10.9733333 106.476597,11.8 C106.003264,12.6266667 105.363264,13.2666667 104.556597,13.72 C103.74993,14.1733333 102.83993,14.4 101.826597,14.4 Z M95.4665971,18.12 L95.4665971,3.48 L98.4465971,3.48 L98.4465971,5.68 L98.3865971,8.88 L98.5865971,12.06 L98.5865971,18.12 L95.4665971,18.12 Z M101.286597,11.84 C101.806597,11.84 102.26993,11.72 102.676597,11.48 C103.083264,11.24 103.40993,10.8966667 103.656597,10.45 C103.903264,10.0033333 104.026597,9.47333333 104.026597,8.86 C104.026597,8.23333333 103.903264,7.7 103.656597,7.26 C103.40993,6.82 103.083264,6.48 102.676597,6.24 C102.26993,6 101.806597,5.88 101.286597,5.88 C100.766597,5.88 100.29993,6 99.8865971,6.24 C99.4732637,6.48 99.1465971,6.82 98.9065971,7.26 C98.6665971,7.7 98.5465971,8.23333333 98.5465971,8.86 C98.5465971,9.47333333 98.6665971,10.0033333 98.9065971,10.45 C99.1465971,10.8966667 99.4732637,11.24 99.8865971,11.48 C100.29993,11.72 100.766597,11.84 101.286597,11.84 Z" id="Shape"></path>
            <path d="M116.292861,14.24 L116.292861,12.14 L116.092861,11.68 L116.092861,7.92 C116.092861,7.25333333 115.889527,6.73333333 115.482861,6.36 C115.076194,5.98666667 114.452861,5.8 113.612861,5.8 C113.039527,5.8 112.476194,5.89 111.922861,6.07 C111.369527,6.25 110.899527,6.49333333 110.512861,6.8 L109.392861,4.62 C109.979527,4.20666667 110.686194,3.88666667 111.512861,3.66 C112.339527,3.43333333 113.179527,3.32 114.032861,3.32 C115.672861,3.32 116.946194,3.70666667 117.852861,4.48 C118.759527,5.25333333 119.212861,6.46 119.212861,8.1 L119.212861,14.24 L116.292861,14.24 Z M113.012861,14.4 C112.172861,14.4 111.452861,14.2566667 110.852861,13.97 C110.252861,13.6833333 109.792861,13.2933333 109.472861,12.8 C109.152861,12.3066667 108.992861,11.7533333 108.992861,11.14 C108.992861,10.5 109.149527,9.94 109.462861,9.46 C109.776194,8.98 110.272861,8.60333333 110.952861,8.33 C111.632861,8.05666667 112.519527,7.92 113.612861,7.92 L116.472861,7.92 L116.472861,9.74 L113.952861,9.74 C113.219527,9.74 112.716194,9.86 112.442861,10.1 C112.169527,10.34 112.032861,10.64 112.032861,11 C112.032861,11.4 112.189527,11.7166667 112.502861,11.95 C112.816194,12.1833333 113.246194,12.3 113.792861,12.3 C114.312861,12.3 114.779527,12.1766667 115.192861,11.93 C115.606194,11.6833333 115.906194,11.32 116.092861,10.84 L116.572861,12.28 C116.346194,12.9733333 115.932861,13.5 115.332861,13.86 C114.732861,14.22 113.959527,14.4 113.012861,14.4 Z" id="Shape"></path>
            <path d="M124.737871,12.116875 L121.669434,11.6775 C122.048392,11.685625 122.359226,11.5715104 122.601934,11.3351563 C122.844642,11.0988021 123.033392,10.7710417 123.168184,10.351875 C123.302976,9.93270833 123.402351,9.45145833 123.466309,8.908125 C123.530267,8.36479167 123.576934,7.79416667 123.606309,7.19625 L123.746309,3.4809375 L133.118809,3.4809375 L133.118809,12.843125 L130.006934,12.843125 L130.006934,6.035625 L126.479746,6.035625 L126.423496,7.4275 C126.402038,7.99875 126.368601,8.54270833 126.323184,9.059375 C126.277767,9.57604167 126.19834,10.0453646 126.084903,10.4673437 C125.971465,10.8893229 125.808653,11.243125 125.596465,11.52875 C125.384278,11.814375 125.09808,12.0104167 124.737871,12.116875 Z M121.301309,16.556875 L121.301309,11.6775 L134.663496,11.6775 L134.663496,16.556875 L131.762559,16.556875 L131.762559,14.24 L124.201934,14.24 L124.201934,16.556875 L121.301309,16.556875 Z" id="Shape"></path>
            <path d="M142.415251,14.4 C141.255251,14.4 140.221918,14.1633333 139.315251,13.69 C138.408584,13.2166667 137.698584,12.56 137.185251,11.72 C136.671918,10.88 136.415251,9.92666667 136.415251,8.86 C136.415251,7.78 136.671918,6.82333333 137.185251,5.99 C137.698584,5.15666667 138.408584,4.50333333 139.315251,4.03 C140.221918,3.55666667 141.255251,3.32 142.415251,3.32 C143.548584,3.32 144.535251,3.55666667 145.375251,4.03 C146.215251,4.50333333 146.835251,5.18 147.235251,6.06 L144.815251,7.36 C144.535251,6.85333333 144.185251,6.48 143.765251,6.24 C143.345251,6 142.888584,5.88 142.395251,5.88 C141.861918,5.88 141.381918,6 140.955251,6.24 C140.528584,6.48 140.191918,6.82 139.945251,7.26 C139.698584,7.7 139.575251,8.23333333 139.575251,8.86 C139.575251,9.48666667 139.698584,10.02 139.945251,10.46 C140.191918,10.9 140.528584,11.24 140.955251,11.48 C141.381918,11.72 141.861918,11.84 142.395251,11.84 C142.888584,11.84 143.345251,11.7233333 143.765251,11.49 C144.185251,11.2566667 144.535251,10.88 144.815251,10.36 L147.235251,11.68 C146.835251,12.5466667 146.215251,13.2166667 145.375251,13.69 C144.535251,14.1633333 143.548584,14.4 142.415251,14.4 Z" id="Path"></path>
            <path d="M157.417678,14.24 L153.826428,9.1475 L156.356116,7.6309375 L161.096428,14.24 L157.417678,14.24 Z M149.797366,14.24 L149.797366,3.4809375 L152.917678,3.4809375 L152.917678,14.24 L149.797366,14.24 Z M151.995803,10.1534375 L151.995803,7.6590625 L155.762053,7.6590625 L155.762053,10.1534375 L151.995803,10.1534375 Z M156.659241,9.211875 L153.734866,8.89625 L157.528616,3.4809375 L160.840178,3.4809375 L156.659241,9.211875 Z" id="Shape"></path>
        </g>
    </g>
</svg>